<?xml version="1.0" encoding="UTF-8" standalone="no"?>
<svg width="43px" height="43px" viewBox="0 0 43 43" version="1.1" xmlns="http://www.w3.org/2000/svg" xmlns:xlink="http://www.w3.org/1999/xlink" xmlns:sketch="http://www.bohemiancoding.com/sketch/ns">
    <!-- Generator: bin/sketchtool 1.4 (305) - http://www.bohemiancoding.com/sketch -->
    <title>github</title>
    <desc>Created with bin/sketchtool.</desc>
    <defs></defs>
    <g id="Welcome" stroke="none" stroke-width="1" fill="none" fill-rule="evenodd" sketch:type="MSPage">
        <g id="About" sketch:type="MSArtboardGroup" transform="translate(-698.000000, -1244.000000)">
            <g id="Social" sketch:type="MSLayerGroup" transform="translate(621.000000, 1246.000000)">
                <g id="github" transform="translate(79.000000, 0.000000)" sketch:type="MSShapeGroup">
                    <circle id="Oval-16-Copy-2" stroke="#2BAAB6" stroke-width="3" cx="19.5" cy="19.5" r="19.5"></circle>
                    <g id="github11" transform="translate(8.000000, 8.000000)" fill="#2BAAB6">
                        <g id="Group">
                            <path d="M21.8777193,6.45473684 C22.1350877,5.68263158 22.2638596,4.8822807 22.2638596,4.05333333 C22.2638596,2.94789474 22.0205263,1.90912281 21.5347368,0.937192982 C20.5152632,0.937192982 19.6149123,1.12315789 18.8333333,1.49473684 C18.0521053,1.86631579 17.1612281,2.44280702 16.1608772,3.22421053 C14.9031579,2.91929825 13.5687719,2.76684211 12.1585965,2.76684211 C10.6149123,2.76684211 9.14263158,2.93368421 7.74192982,3.26719298 C6.72245614,2.46666667 5.82192982,1.87842105 5.04052632,1.50192982 C4.25912281,1.1254386 3.35385965,0.937192982 2.32473684,0.937192982 C1.83877193,1.90912281 1.59578947,2.94789474 1.59578947,4.05333333 C1.59578947,4.89192982 1.72438596,5.70192982 1.98175439,6.48315789 C0.685614035,7.99842105 0.0377192982,9.88508772 0.0377192982,12.1435088 C0.0377192982,14.1257895 0.332982456,15.7026316 0.923859649,16.8749123 C1.23842105,17.4940351 1.64807018,18.0419298 2.15315789,18.5185965 C2.65807018,18.9949123 3.2345614,19.3810526 3.88263158,19.6764912 C4.53070175,19.9717544 5.18333333,20.217193 5.84087719,20.4124561 C6.49842105,20.6077193 7.22491228,20.7507018 8.02070175,20.8410526 C8.81631579,20.9319298 9.51912281,20.9912281 10.1289474,21.02 C10.7387719,21.0484211 11.4152632,21.062807 12.1585965,21.062807 C13.0352632,21.062807 13.8307018,21.0412281 14.545614,20.9985965 C15.2605263,20.9557895 16.0773684,20.8507018 16.9970175,20.6842105 C17.9164912,20.5173684 18.7264912,20.2910526 19.4270175,20.0052632 C20.1273684,19.7192982 20.7992982,19.3096491 21.4424561,18.7759649 C22.085614,18.2421053 22.5882456,17.6087719 22.9505263,16.8749123 C23.5315789,15.6931579 23.8222807,14.1159649 23.8222807,12.1435088 C23.8219298,9.87561404 23.1740351,7.97929825 21.8777193,6.45473684 L21.8777193,6.45473684 Z M20.1631579,16.8531579 C19.8582456,17.4773684 19.4721053,17.9678947 19.0052632,18.3254386 C18.5382456,18.682807 17.9570175,18.9685965 17.2615789,19.1833333 C16.565614,19.3975439 15.8989474,19.5380702 15.2605263,19.6047368 C14.6217544,19.6714035 13.9121053,19.7047368 13.1305263,19.7047368 L10.7291228,19.7047368 C9.9477193,19.7047368 9.2377193,19.6714035 8.59929825,19.6047368 C7.96087719,19.5380702 7.29385965,19.3975439 6.59824561,19.1833333 C5.90280702,18.9685965 5.32157895,18.6829825 4.8545614,18.3254386 C4.38754386,17.9678947 4.00157895,17.4773684 3.69666667,16.8531579 C3.39175439,16.2287719 3.23929825,15.4975439 3.23929825,14.6591228 C3.23929825,13.5154386 3.56807018,12.5433333 4.22561404,11.7431579 C4.88315789,10.9426316 5.77403509,10.5424561 6.89842105,10.5424561 C7.30824561,10.5424561 8.23736842,10.6424561 9.68578947,10.8426316 C10.3622807,10.9473684 11.1103509,10.9998246 11.9298246,10.9998246 C12.7494737,10.9998246 13.4975439,10.9475439 14.1738596,10.8426316 C15.6415789,10.6424561 16.5703509,10.5424561 16.9614035,10.5424561 C18.085614,10.5424561 18.9764912,10.942807 19.6340351,11.7431579 C20.2915789,12.5435088 20.6201754,13.5154386 20.6201754,14.6591228 C20.6201754,15.4977193 20.4677193,16.2292982 20.1631579,16.8531579 L20.1631579,16.8531579 Z" id="Shape"></path>
                            <path d="M8.39210526,12.4007018 C8.10140351,12.0764912 7.75614035,11.9145614 7.35578947,11.9145614 C6.9554386,11.9145614 6.61,12.0766667 6.31947368,12.4007018 C6.02894737,12.7245614 5.82403509,13.0866667 5.70491228,13.4866667 C5.58561404,13.8870175 5.52614035,14.2777193 5.52614035,14.6591228 C5.52614035,15.0401754 5.58578947,15.4308772 5.70491228,15.8312281 C5.82385965,16.2314035 6.02877193,16.5933333 6.31947368,16.917193 C6.61017544,17.2414035 6.9554386,17.4033333 7.35578947,17.4033333 C7.75614035,17.4033333 8.10157895,17.2410526 8.39210526,16.917193 C8.68263158,16.5933333 8.88754386,16.2314035 9.00666667,15.8312281 C9.12578947,15.4308772 9.1854386,15.0401754 9.1854386,14.6591228 C9.1854386,14.2780702 9.12596491,13.887193 9.00666667,13.4866667 C8.88754386,13.0868421 8.68280702,12.7247368 8.39210526,12.4007018 L8.39210526,12.4007018 Z" id="Shape"></path>
                            <path d="M17.5401754,12.4007018 C17.2496491,12.0764912 16.9042105,11.9145614 16.5040351,11.9145614 C16.1038596,11.9145614 15.7584211,12.0766667 15.4675439,12.4007018 C15.1770175,12.7245614 14.9721053,13.0866667 14.8531579,13.4866667 C14.7338596,13.8870175 14.6742105,14.2777193 14.6742105,14.6591228 C14.6742105,15.0401754 14.7338596,15.4308772 14.8531579,15.8312281 C14.9721053,16.2314035 15.1770175,16.5933333 15.4675439,16.917193 C15.7584211,17.2414035 16.1038596,17.4033333 16.5040351,17.4033333 C16.9042105,17.4033333 17.2496491,17.2410526 17.5401754,16.917193 C17.8305263,16.5933333 18.0354386,16.2314035 18.1549123,15.8312281 C18.2738596,15.4308772 18.3335088,15.0401754 18.3335088,14.6591228 C18.3335088,14.2780702 18.2738596,13.887193 18.1549123,13.4866667 C18.0354386,13.0868421 17.8305263,12.7247368 17.5401754,12.4007018 L17.5401754,12.4007018 Z" id="Shape"></path>
                        </g>
                    </g>
                </g>
            </g>
        </g>
    </g>
</svg>