<?xml version="1.0" encoding="UTF-8" standalone="no"?>
<svg width="43px" height="43px" viewBox="0 0 43 43" version="1.1" xmlns="http://www.w3.org/2000/svg" xmlns:xlink="http://www.w3.org/1999/xlink" xmlns:sketch="http://www.bohemiancoding.com/sketch/ns">
    <!-- Generator: bin/sketchtool 1.4 (305) - http://www.bohemiancoding.com/sketch -->
    <title>Twitter</title>
    <desc>Created with bin/sketchtool.</desc>
    <defs></defs>
    <g id="Welcome" stroke="none" stroke-width="1" fill="none" fill-rule="evenodd" sketch:type="MSPage">
        <g id="About" sketch:type="MSArtboardGroup" transform="translate(-778.000000, -1244.000000)">
            <g id="Social" sketch:type="MSLayerGroup" transform="translate(621.000000, 1246.000000)">
                <g id="Twitter" transform="translate(159.000000, 0.000000)" sketch:type="MSShapeGroup">
                    <circle id="Oval-16-Copy" stroke="#3797D8" stroke-width="3" cx="19.5" cy="19.5" r="19.5"></circle>
                    <g id="twitter16" transform="translate(8.000000, 10.000000)" fill="#3797D8">
                        <path d="M23.3218531,3.04912587 C22.4388112,3.42902098 21.5554196,3.66625874 20.6727273,3.76153846 C21.6697552,3.16328671 22.3440559,2.31818182 22.6954545,1.22622378 C21.7835664,1.76730769 20.8103147,2.13758741 19.7753497,2.33706294 C18.8636364,1.36853147 17.7433566,0.884090909 16.4138112,0.884090909 C15.1414336,0.884090909 14.0566434,1.33269231 13.1590909,2.23006993 C12.2617133,3.12744755 11.8131119,4.21223776 11.8131119,5.48461538 C11.8131119,5.8263986 11.851049,6.1777972 11.9270979,6.53863636 C10.0468531,6.44370629 8.28304196,5.97132867 6.63548951,5.1215035 C4.98793706,4.2715035 3.58968531,3.13916084 2.44073427,1.7243007 C2.0229021,2.43636364 1.81398601,3.21031469 1.81398601,4.04597902 C1.81398601,4.83409091 1.99912587,5.56538462 2.36958042,6.23951049 C2.73986014,6.91363636 3.23846154,7.45961538 3.86520979,7.87744755 C3.12447552,7.84895105 2.43129371,7.6541958 1.78566434,7.29335664 L1.78566434,7.35034965 C1.78566434,8.46136364 2.13461538,9.43688811 2.83251748,10.2774476 C3.53041958,11.118007 4.41118881,11.6472028 5.47465035,11.8655594 C5.07587413,11.9699301 4.6722028,12.0222028 4.26398601,12.0222028 C3.99807692,12.0222028 3.70839161,11.9984266 3.3951049,11.9512238 C3.68951049,12.8722028 4.23076923,13.6293706 5.01888112,14.2229021 C5.80699301,14.8166084 6.69965035,15.1225524 7.69667832,15.1417832 C6.02552448,16.4519231 4.12167832,17.1071678 1.98513986,17.1071678 C1.57674825,17.1071678 1.20646853,17.0884615 0.874125874,17.0503497 C3.01066434,18.4270979 5.36555944,19.1153846 7.93898601,19.1153846 C9.5722028,19.1153846 11.1057692,18.8568182 12.5393357,18.3393357 C13.9734266,17.8218531 15.1982517,17.1286713 16.2143357,16.2596154 C17.2302448,15.3909091 18.1062937,14.3914336 18.8421329,13.2613636 C19.577972,12.1314685 20.1262238,10.9517483 20.4872378,9.72202797 C20.8480769,8.49213287 21.0284965,7.26031469 21.0284965,6.0256993 C21.0284965,5.75979021 21.0237762,5.56048951 21.0141608,5.42744755 C21.9164336,4.77255245 22.6856643,3.97954545 23.3218531,3.04912587 L23.3218531,3.04912587 Z" id="Shape"></path>
                    </g>
                </g>
            </g>
        </g>
    </g>
</svg>